<svg xmlns="http://www.w3.org/2000/svg" version="1.1" xmlns:xlink="http://www.w3.org/1999/xlink" xmlns:svgjs="http://svgjs.dev/svgjs" width="1500" height="1500" viewBox="0 0 1500 1500"><rect width="1500" height="1500" fill="#000000"></rect><g transform="matrix(0.6666666666666666,0,0,0.6666666666666666,249.39393939393938,435.99032258064517)"><svg viewBox="0 0 396 248" data-background-color="#293040" preserveAspectRatio="xMidYMid meet" height="939" width="1500" xmlns="http://www.w3.org/2000/svg" xmlns:xlink="http://www.w3.org/1999/xlink"><g id="tight-bounds" transform="matrix(1,0,0,1,0.2400000000000091,0.4000000000000057)"><svg viewBox="0 0 395.52 247.2" height="247.2" width="395.52"><g><svg></svg></g><g><svg viewBox="0 0 395.52 247.2" height="247.2" width="395.52"><g transform="matrix(1,0,0,1,75.54432,107.856130230563)"><svg viewBox="0 0 244.43135999999998 31.487739538873992" height="31.487739538873992" width="244.43135999999998"><g><svg viewBox="0 0 244.43135999999998 31.487739538873992" height="31.487739538873992" width="244.43135999999998"><g><svg viewBox="0 0 244.43135999999998 31.487739538873992" height="31.487739538873992" width="244.43135999999998"><g><svg viewBox="0 0 244.43135999999998 31.487739538873992" height="31.487739538873992" width="244.43135999999998"><g id="textblocktransform"><svg viewBox="0 0 244.43135999999998 31.487739538873992" height="31.487739538873992" width="244.43135999999998" id="textblock"><g><svg viewBox="0 0 244.43135999999998 31.487739538873992" height="31.487739538873992" width="244.43135999999998"><g transform="matrix(1,0,0,1,0,0)"><svg width="244.43135999999998" viewBox="4.05 -37.48 364.22999999999996 46.93" height="31.487739538873992" data-palette-color="#d5b263"><path d="M28.61-24.51L28.61-24.51Q28.61-22.29 28.37-20.56 28.13-18.82 27.72-17.59 27.32-16.36 26.62-15.48 25.93-14.6 25.16-14.06 24.39-13.53 23.3-13.22 22.22-12.92 21.15-12.82 20.09-12.72 18.68-12.72L18.68-12.72 8.98-12.72 8.98 0 4.05 0 4.05-36.38 17.24-36.38Q19.51-36.38 21.08-36.19 22.66-36.01 24-35.52 25.34-35.03 26.15-34.2 26.95-33.37 27.54-32.03 28.13-30.69 28.36-28.87 28.59-27.05 28.61-24.51ZM23.68-24.78L23.68-24.78Q23.66-26.54 23.58-27.64 23.51-28.74 23.3-29.71 23.1-30.69 22.77-31.2 22.44-31.71 21.86-32.09 21.29-32.47 20.52-32.59 19.75-32.71 18.6-32.71L18.6-32.71 8.98-32.71 8.98-16.41 17.6-16.41Q19.51-16.41 20.7-16.72 21.9-17.04 22.57-17.79 23.24-18.53 23.47-19.53 23.71-20.53 23.71-22.12L23.71-22.12Q23.71-22.51 23.69-23.39 23.68-24.27 23.68-24.78ZM56.03-15.36L56.03 0 51.22 0 51.22-16.26Q51.22-17.14 51.25-18.48 51.29-19.82 51.29-20.26L51.29-20.26Q51.29-21.48 51.11-22.14 50.93-22.8 50.27-23.32 49.61-23.83 48.41-24 47.21-24.17 45.14-24.17L45.14-24.17Q44.16-24.17 43.3-24.06 42.43-23.95 41.65-23.69 40.87-23.44 40.38-22.97 39.89-22.51 39.84-21.88L39.84-21.88Q39.5-17.48 39.5-13.96L39.5-13.96 39.5 0 34.67 0 34.67-36.28 39.5-36.67 39.5-24.76Q41.26-27.54 46.77-27.54L46.77-27.54Q48.22-27.51 49.37-27.36 50.53-27.2 51.44-26.98 52.34-26.76 53.02-26.37 53.71-25.98 54.2-25.56 54.69-25.15 55.03-24.52 55.37-23.9 55.56-23.32 55.76-22.73 55.87-21.88 55.98-21.02 56.02-20.28 56.05-19.53 56.05-18.46L56.05-18.46Q56.05-17.99 56.04-16.96 56.03-15.92 56.03-15.36L56.03-15.36ZM68.5-26.78L68.5 0 63.69 0 63.69-26.78 68.5-26.78ZM63.69-37.13L68.5-37.13 68.5-32.91 63.69-32.91 63.69-37.13ZM81.24-36.67L81.24 0 76.43 0 76.43-36.28 81.24-36.67ZM93.91-26.78L93.91 0 89.1 0 89.1-26.78 93.91-26.78ZM89.1-37.13L93.91-37.13 93.91-32.91 89.1-32.91 89.1-37.13ZM123.6-13.21L123.6-13.21Q123.6-10.96 123.51-9.4 123.43-7.84 123.19-6.3 122.96-4.76 122.51-3.78 122.06-2.81 121.34-1.94 120.62-1.07 119.57-0.61 118.52-0.15 117.1 0.11 115.69 0.37 113.81 0.37L113.81 0.37Q107.36 0.37 106.43-2.51L106.43-2.51 106.43 9.08 101.62 9.45 101.62-26.78 105.99-26.78 106.46-23.83Q107.95-27.54 114.27-27.54L114.27-27.54Q115.56-27.54 116.63-27.43 117.69-27.32 118.55-27.03 119.42-26.73 120.09-26.39 120.76-26.05 121.29-25.45 121.81-24.85 122.18-24.24 122.55-23.63 122.8-22.69 123.06-21.75 123.22-20.85 123.38-19.95 123.46-18.64 123.55-17.33 123.57-16.13 123.6-14.92 123.6-13.21ZM118.79-14.79L118.79-14.79Q118.74-19.7 118.64-21.29L118.64-21.29Q118.54-23 117.36-23.58 116.17-24.17 112.68-24.17L112.68-24.17Q108.26-24.17 107.02-22.75L107.02-22.75Q106.34-21.75 106.34-16.92L106.34-16.92Q106.34-15.94 106.37-14.01 106.41-12.08 106.41-11.23 106.41-10.38 106.35-9.03 106.29-7.69 106.29-7.18L106.29-7.18Q106.29-5.69 106.76-4.83 107.24-3.98 108.67-3.48 110.09-2.98 112.68-2.98L112.68-2.98Q116.25-2.98 117.49-3.56L117.49-3.56Q118.84-4.2 118.84-10.13L118.84-10.13Q118.84-11.04 118.81-12.62 118.79-14.21 118.79-14.79ZM152.33-13.21L152.33-13.21Q152.33-10.96 152.24-9.4 152.16-7.84 151.93-6.3 151.69-4.76 151.24-3.78 150.79-2.81 150.07-1.94 149.35-1.07 148.3-0.61 147.25-0.15 145.83 0.11 144.42 0.37 142.54 0.37L142.54 0.37Q136.09 0.37 135.17-2.51L135.17-2.51 135.17 9.08 130.36 9.45 130.36-26.78 134.73-26.78 135.19-23.83Q136.68-27.54 143-27.54L143-27.54Q144.3-27.54 145.36-27.43 146.42-27.32 147.29-27.03 148.15-26.73 148.83-26.39 149.5-26.05 150.02-25.45 150.55-24.85 150.91-24.24 151.28-23.63 151.54-22.69 151.79-21.75 151.95-20.85 152.11-19.95 152.19-18.64 152.28-17.33 152.3-16.13 152.33-14.92 152.33-13.21ZM147.52-14.79L147.52-14.79Q147.47-19.7 147.37-21.29L147.37-21.29Q147.28-23 146.09-23.58 144.91-24.17 141.42-24.17L141.42-24.17Q137-24.17 135.75-22.75L135.75-22.75Q135.07-21.75 135.07-16.92L135.07-16.92Q135.07-15.94 135.1-14.01 135.14-12.08 135.14-11.23 135.14-10.38 135.08-9.03 135.02-7.69 135.02-7.18L135.02-7.18Q135.02-5.69 135.5-4.83 135.97-3.98 137.4-3.48 138.83-2.98 141.42-2.98L141.42-2.98Q144.98-2.98 146.23-3.56L146.23-3.56Q147.57-4.2 147.57-10.13L147.57-10.13Q147.57-11.04 147.54-12.62 147.52-14.21 147.52-14.79ZM180.11-13.77L180.11-13.77Q177.18-13.48 176.47-13.43L176.47-13.43 163.17-13.43Q163.19-9.89 163.36-5.66L163.36-5.66Q163.48-4.03 164.77-3.5 166.05-2.98 169.76-2.98L169.76-2.98Q171.15-2.98 172.15-3.09 173.15-3.2 173.77-3.48 174.4-3.76 174.75-4.02 175.1-4.27 175.28-4.82 175.45-5.37 175.5-5.75 175.54-6.13 175.59-6.9 175.64-7.67 175.71-8.15L175.71-8.15 179.45-7.47Q179.4-5.76 179.21-4.58 179.01-3.39 178.55-2.49 178.08-1.59 177.45-1.06 176.81-0.54 175.74-0.2 174.67 0.15 173.37 0.26 172.08 0.37 170.17 0.37L170.17 0.37Q167.73 0.37 165.92 0.09 164.12-0.2 162.84-0.61 161.55-1.03 160.72-1.97 159.89-2.91 159.42-3.76 158.94-4.61 158.72-6.27 158.5-7.93 158.44-9.29 158.38-10.64 158.38-13.04L158.38-13.04Q158.38-16.41 158.47-18.29 158.55-20.17 158.94-22.06 159.33-23.95 159.99-24.8 160.65-25.66 161.95-26.39 163.24-27.12 165-27.33 166.75-27.54 169.46-27.54L169.46-27.54Q171.34-27.54 172.71-27.43 174.08-27.32 175.23-26.98 176.37-26.64 177.12-26.2 177.86-25.76 178.44-24.9 179.01-24.05 179.32-23.13 179.62-22.22 179.82-20.7 180.01-19.19 180.06-17.64 180.11-16.09 180.11-13.77ZM163.19-15.99L163.19-15.99 175.3-15.99Q175.25-19.12 175.06-21.7L175.06-21.7Q174.96-23.19 173.77-23.69 172.59-24.19 169.44-24.19L169.44-24.19Q165.95-24.19 165.02-23.8L165.02-23.8Q164.61-23.68 164.3-23.38 164-23.07 163.8-22.51 163.61-21.95 163.5-21.46 163.39-20.97 163.32-20.1 163.26-19.24 163.24-18.76 163.21-18.29 163.2-17.31 163.19-16.33 163.19-15.99ZM199.93 0L195.36 0 197.17-36.6 202.54-36.6 213.04-7.96 223.34-36.6 228.71-36.6 230.64 0 225.81 0 224.54-29.32 214.43 0 211.6 0 201-29.1 199.93 0ZM256.84-17.72L256.84 0 253.03 0 252.25-3.83Q251.51-1.32 249.6-0.48 247.68 0.37 243.99 0.37L243.99 0.37Q241.55 0.37 239.99-0.11 238.43-0.59 237.5-1.71 236.57-2.83 236.22-4.46 235.86-6.08 235.86-8.64L235.86-8.64Q235.86-9.79 236.27-10.69 236.67-11.6 237.37-12.23 238.06-12.87 239.22-13.33 240.38-13.79 241.63-14.06 242.87-14.33 244.64-14.49 246.41-14.65 248.1-14.7 249.78-14.75 252.03-14.75L252.03-14.75 252.03-22Q252.03-23.24 250.85-23.72 249.68-24.19 246.68-24.19L246.68-24.19Q244.58-24.19 243.53-24.1 242.48-24 241.93-23.52 241.38-23.05 241.3-22.58 241.21-22.12 241.19-20.85L241.19-20.85Q241.16-20.39 241.16-20.12L241.16-20.12 237.43-20.26Q237.38-20.65 237.38-21.41L237.38-21.41Q237.38-23.05 237.85-24.18 238.33-25.32 239.09-25.96 239.84-26.61 241.16-26.98 242.48-27.34 243.77-27.44 245.07-27.54 247-27.54L247-27.54Q249.93-27.54 251.76-27.09 253.59-26.64 254.76-25.46 255.93-24.29 256.38-22.47 256.84-20.65 256.84-17.72L256.84-17.72ZM252.03-7.67L252.03-7.67 252.03-11.84Q247.22-11.84 244.63-11.47 242.04-11.11 241.17-10.46 240.31-9.81 240.31-8.64L240.31-8.64Q240.31-8.59 240.31-8.5L240.31-8.5Q240.31-4.79 240.92-3.88 241.53-2.98 244.65-2.98L244.65-2.98Q247.31-2.98 248.97-3.61 250.63-4.25 251.28-5.24 251.93-6.23 252.03-7.67ZM284.54-19.07L284.54-19.07 280.59-18.41 280.08-21.8Q279.88-22.97 279.61-23.29L279.61-23.29Q278.98-24.02 276.1-24.12L276.1-24.12Q275.41-24.15 274.58-24.15L274.58-24.15Q271.26-24.15 270.24-23.78L270.24-23.78Q269.11-23.58 268.6-21.56 268.09-19.53 268.09-16.6L268.09-16.6 268.11-12.38Q268.11-11.5 268.11-9.96L268.11-9.96Q268.11-7.96 268.11-7.14 268.11-6.32 268.33-5.29 268.55-4.25 268.83-3.99 269.11-3.74 269.89-3.39 270.68-3.05 271.57-3.03 272.46-3 274.14-3L274.14-3Q275.46-3 276.43-3.1 277.39-3.2 278.06-3.33 278.73-3.47 279.16-3.8 279.59-4.13 279.82-4.39 280.05-4.66 280.17-5.24 280.29-5.81 280.33-6.23 280.37-6.64 280.42-7.48 280.47-8.33 280.54-8.91L280.54-8.91 284.54-8.23Q284.4-6.32 284.21-5.18 284.03-4.03 283.6-2.95 283.18-1.88 282.53-1.33 281.88-0.78 280.75-0.34 279.61 0.1 278.11 0.23 276.61 0.37 274.36 0.37L274.36 0.37Q272.75 0.37 271.47 0.27 270.19 0.17 269.14-0.13 268.09-0.44 267.31-0.72 266.53-1 265.93-1.71 265.33-2.42 264.93-2.93 264.52-3.44 264.25-4.59 263.99-5.74 263.84-6.54 263.69-7.35 263.62-9 263.55-10.64 263.53-11.79 263.52-12.94 263.52-15.11L263.52-15.11Q263.52-17.07 263.6-18.49 263.67-19.92 263.89-21.23 264.11-22.53 264.46-23.4 264.82-24.27 265.41-25.02 266.01-25.78 266.78-26.22 267.55-26.66 268.69-26.98 269.82-27.29 271.18-27.42 272.53-27.54 274.34-27.54L274.34-27.54Q276.66-27.54 278.23-27.31 279.81-27.08 281.03-26.54 282.25-26 282.96-25.01 283.66-24.02 284.05-22.6 284.45-21.17 284.54-19.07ZM311.52-13.77L311.52-13.77Q308.59-13.48 307.88-13.43L307.88-13.43 294.57-13.43Q294.6-9.89 294.77-5.66L294.77-5.66Q294.89-4.03 296.17-3.5 297.46-2.98 301.17-2.98L301.17-2.98Q302.56-2.98 303.56-3.09 304.56-3.2 305.18-3.48 305.8-3.76 306.16-4.02 306.51-4.27 306.68-4.82 306.85-5.37 306.9-5.75 306.95-6.13 307-6.9 307.05-7.67 307.12-8.15L307.12-8.15 310.86-7.47Q310.81-5.76 310.61-4.58 310.42-3.39 309.96-2.49 309.49-1.59 308.86-1.06 308.22-0.54 307.15-0.2 306.07 0.15 304.78 0.26 303.49 0.37 301.58 0.37L301.58 0.37Q299.14 0.37 297.33 0.09 295.53-0.2 294.24-0.61 292.96-1.03 292.13-1.97 291.3-2.91 290.83-3.76 290.35-4.61 290.13-6.27 289.91-7.93 289.85-9.29 289.79-10.64 289.79-13.04L289.79-13.04Q289.79-16.41 289.87-18.29 289.96-20.17 290.35-22.06 290.74-23.95 291.4-24.8 292.06-25.66 293.35-26.39 294.65-27.12 296.41-27.33 298.16-27.54 300.87-27.54L300.87-27.54Q302.75-27.54 304.12-27.43 305.49-27.32 306.64-26.98 307.78-26.64 308.53-26.2 309.27-25.76 309.85-24.9 310.42-24.05 310.72-23.13 311.03-22.22 311.22-20.7 311.42-19.19 311.47-17.64 311.52-16.09 311.52-13.77ZM294.6-15.99L294.6-15.99 306.71-15.99Q306.66-19.12 306.46-21.7L306.46-21.7Q306.37-23.19 305.18-23.69 304-24.19 300.85-24.19L300.85-24.19Q297.36-24.19 296.43-23.8L296.43-23.8Q296.01-23.68 295.71-23.38 295.4-23.07 295.21-22.51 295.01-21.95 294.9-21.46 294.79-20.97 294.73-20.1 294.67-19.24 294.65-18.76 294.62-18.29 294.61-17.31 294.6-16.33 294.6-15.99ZM339.3-37.48L339.3 0 334.9 0 334.44-3.37Q332.95 0.37 326.65 0.37L326.65 0.37Q324.97 0.37 323.64 0.15 322.31-0.07 321.34-0.61 320.38-1.15 319.69-1.72 319.01-2.29 318.56-3.38 318.11-4.47 317.85-5.36 317.59-6.25 317.47-7.84 317.35-9.42 317.33-10.61 317.3-11.79 317.3-13.82L317.3-13.82Q317.3-15.8 317.36-17.24 317.42-18.68 317.61-20.09 317.79-21.51 318.09-22.47 318.4-23.44 318.91-24.34 319.43-25.24 320.15-25.79 320.87-26.34 321.87-26.77 322.87-27.2 324.16-27.37 325.46-27.54 327.09-27.54L327.09-27.54Q330.24-27.54 331.99-26.7 333.73-25.85 334.49-24.02L334.49-24.02 334.49-37.08 339.3-37.48ZM334.49-6.23L334.49-6.23 334.49-20.46Q334.49-22.58 333.17-23.38 331.85-24.17 328.21-24.17L328.21-24.17Q325.38-24.17 324.02-23.75L324.02-23.75Q322.89-23.41 322.5-21.74 322.11-20.07 322.11-17.24L322.11-17.24Q322.11-13.11 322.26-5.69L322.26-5.69Q322.38-4.08 323.56-3.53 324.75-2.98 328.21-2.98L328.21-2.98Q331.63-2.98 332.99-3.66 334.34-4.35 334.49-6.23ZM357.02-3L357.02-3Q360.49-3.08 361.84-3.52 363.2-3.96 363.2-5.25L363.2-5.25Q363.47-8.74 363.47-13.33L363.47-13.33Q363.47-14.84 363.34-17.66 363.22-20.48 363.22-21.85L363.22-21.85Q363.22-22.27 363.09-22.61 362.95-22.95 362.65-23.18 362.34-23.41 362.04-23.58 361.73-23.75 361.18-23.85 360.63-23.95 360.26-24.02 359.88-24.1 359.18-24.12 358.49-24.15 358.11-24.15 357.73-24.15 357-24.15 356.26-24.15 355.89-24.15 355.51-24.15 354.81-24.12 354.12-24.1 353.74-24.02 353.36-23.95 352.81-23.85 352.26-23.75 351.95-23.58 351.65-23.41 351.34-23.18 351.04-22.95 350.9-22.61 350.77-22.27 350.77-21.85L350.77-21.85Q350.77-20.48 350.65-17.66 350.53-14.84 350.53-13.33L350.53-13.33Q350.53-8.74 350.8-5.25L350.8-5.25Q350.8-3.96 352.22-3.48 353.65-3 357.02-3ZM356.97 0.37L356.97 0.37Q354.26 0.37 352.46 0.15 350.65-0.07 349.34-0.82 348.04-1.56 347.35-2.4 346.67-3.25 346.28-5.07 345.89-6.88 345.8-8.67 345.72-10.45 345.72-13.62L345.72-13.62Q345.72-15.99 345.78-17.58 345.84-19.17 346.06-20.69 346.28-22.22 346.61-23.16 346.94-24.1 347.56-24.94 348.18-25.78 348.96-26.22 349.75-26.66 350.95-26.99 352.16-27.32 353.59-27.43 355.02-27.54 357-27.54 358.97-27.54 360.4-27.43 361.83-27.32 363.04-26.99 364.25-26.66 365.03-26.22 365.81-25.78 366.43-24.94 367.05-24.1 367.38-23.16 367.71-22.22 367.93-20.69 368.15-19.17 368.21-17.58 368.28-15.99 368.28-13.62L368.28-13.62Q368.28-10.45 368.19-8.67 368.1-6.88 367.71-5.07 367.32-3.25 366.63-2.39 365.93-1.54 364.63-0.81 363.32-0.07 361.51 0.15 359.71 0.37 356.97 0.37Z" opacity="1" transform="matrix(1,0,0,1,0,0)" fill="#ffffff" class="wordmark-text-0" data-fill-palette-color="primary" id="text-0"></path></svg></g></svg></g></svg></g></svg></g></svg></g></svg></g></svg></g><path d="M176.929 101.856L176.929 37.991 5.711 37.991 5.711 209.209 176.929 209.209 176.929 145.344 174.09 145.344 174.09 206.369 8.551 206.369 8.551 40.831 174.09 40.831 174.09 101.856Z" fill="#ffffff" stroke="transparent" data-fill-palette-color="tertiary"></path></svg></g><defs></defs></svg><rect width="395.52" height="247.2" fill="none" stroke="none" visibility="hidden"></rect></g></svg></g></svg>